<svg width="73" height="12" viewBox="0 0 73 12" fill="none" xmlns="http://www.w3.org/2000/svg">
<path d="M5.54012 0L6.78395 3.82813H10.8091L7.55268 6.19404L8.79652 10.0222L5.54012 7.65625L2.28372 10.0222L3.52755 6.19404L0.271152 3.82813H4.29628L5.54012 0Z" fill="#FF6A00"/>
<path d="M20.7755 0L22.0193 3.82813H26.0444L22.788 6.19404L24.0319 10.0222L20.7755 7.65625L17.5191 10.0222L18.7629 6.19404L15.5065 3.82813H19.5316L20.7755 0Z" fill="#FF6A00"/>
<path d="M36.0108 0L37.2547 3.82813H41.2798L38.0234 6.19404L39.2672 10.0222L36.0108 7.65625L32.7544 10.0222L33.9983 6.19404L30.7419 3.82813H34.767L36.0108 0Z" fill="#FF6A00"/>
<path d="M51.2462 0L52.49 3.82813H56.5151L53.2587 6.19404L54.5026 10.0222L51.2462 7.65625L47.9898 10.0222L49.2336 6.19404L45.9772 3.82813H50.0023L51.2462 0Z" fill="#FF6A00"/>
<path d="M66.4815 0L67.7254 3.82813H71.7505L68.4941 6.19404L69.7379 10.0222L66.4815 7.65625L63.2251 10.0222L64.469 6.19404L61.2126 3.82813H65.2377L66.4815 0Z" fill="#FF6A00"/>
</svg>
